<svg data-v-fde0c5aa="" xmlns="http://www.w3.org/2000/svg" viewBox="0 0 300 300" class="font"><!----><defs data-v-fde0c5aa=""><!----></defs><rect data-v-fde0c5aa="" fill="#F7EEF8" x="0" y="0" width="300px" height="300px" class="logo-background-square"></rect><defs data-v-fde0c5aa=""><linearGradient data-v-fde0c5aa="" gradientTransform="rotate(25)" id="b311b7bb-1edf-465e-a5c3-407c64ea68ce" x1="0%" y1="0%" x2="100%" y2="0%"><stop data-v-fde0c5aa="" offset="0%" stop-color="#A53E33" stop-opacity="1"></stop><stop data-v-fde0c5aa="" offset="100%" stop-color="#BA69C9" stop-opacity="1"></stop></linearGradient></defs><g data-v-fde0c5aa="" id="dff596a1-26b2-48b2-94bd-f5f4280a34f8" fill="url(#b311b7bb-1edf-465e-a5c3-407c64ea68ce)" transform="matrix(1.4564713376709846,0,0,1.4564713376709846,38.57265806130245,135.76299288261603)"><path d="M8.67 5.89L3.75 5.89L3.75 8.05L8.08 8.05L8.08 10.19L3.75 10.19L3.75 13.55L0.98 13.55L0.98 3.75L8.67 3.75L8.67 5.89ZM12.38 6.87L12.38 6.87Q12.78 6.36 13.43 6.10L13.43 6.10L13.43 6.10Q14.08 5.84 14.92 5.84L14.92 5.84L14.92 8.23L14.92 8.23Q14.56 8.19 14.32 8.19L14.32 8.19L14.32 8.19Q13.47 8.19 12.98 8.65L12.98 8.65L12.98 8.65Q12.50 9.11 12.50 10.07L12.50 10.07L12.50 13.55L9.84 13.55L9.84 5.96L12.38 5.96L12.38 6.87ZM23.80 9.77L23.80 9.77Q23.80 9.80 23.76 10.43L23.76 10.43L18.24 10.43L18.24 10.43Q18.41 11.02 18.89 11.33L18.89 11.33L18.89 11.33Q19.38 11.65 20.10 11.65L20.10 11.65L20.10 11.65Q20.65 11.65 21.05 11.49L21.05 11.49L21.05 11.49Q21.45 11.34 21.85 10.99L21.85 10.99L23.25 12.45L23.25 12.45Q22.15 13.68 20.02 13.68L20.02 13.68L20.02 13.68Q18.69 13.68 17.68 13.17L17.68 13.17L17.68 13.17Q16.67 12.67 16.12 11.77L16.12 11.77L16.12 11.77Q15.57 10.88 15.57 9.74L15.57 9.74L15.57 9.74Q15.57 8.62 16.11 7.73L16.11 7.73L16.11 7.73Q16.65 6.85 17.60 6.34L17.60 6.34L17.60 6.34Q18.55 5.84 19.74 5.84L19.74 5.84L19.74 5.84Q20.87 5.84 21.80 6.31L21.80 6.31L21.80 6.31Q22.72 6.78 23.26 7.66L23.26 7.66L23.26 7.66Q23.80 8.55 23.80 9.77L23.80 9.77ZM19.75 7.73L19.75 7.73Q19.14 7.73 18.73 8.08L18.73 8.08L18.73 8.08Q18.31 8.43 18.20 9.03L18.20 9.03L21.31 9.03L21.31 9.03Q21.20 8.43 20.78 8.08L20.78 8.08L20.78 8.08Q20.37 7.73 19.75 7.73L19.75 7.73ZM27.79 13.68L27.79 13.68Q26.84 13.68 25.91 13.46L25.91 13.46L25.91 13.46Q24.99 13.24 24.43 12.89L24.43 12.89L25.23 11.07L25.23 11.07Q25.75 11.40 26.46 11.58L26.46 11.58L26.46 11.58Q27.17 11.77 27.87 11.77L27.87 11.77L27.87 11.77Q28.52 11.77 28.79 11.64L28.79 11.64L28.79 11.64Q29.06 11.51 29.06 11.26L29.06 11.26L29.06 11.26Q29.06 11.00 28.73 10.90L28.73 10.90L28.73 10.90Q28.41 10.79 27.69 10.70L27.69 10.70L27.69 10.70Q26.78 10.58 26.14 10.40L26.14 10.40L26.14 10.40Q25.51 10.22 25.05 9.73L25.05 9.73L25.05 9.73Q24.58 9.24 24.58 8.36L24.58 8.36L24.58 8.36Q24.58 7.63 25.02 7.06L25.02 7.06L25.02 7.06Q25.45 6.50 26.28 6.17L26.28 6.17L26.28 6.17Q27.12 5.84 28.28 5.84L28.28 5.84L28.28 5.84Q29.11 5.84 29.92 6.01L29.92 6.01L29.92 6.01Q30.73 6.17 31.28 6.48L31.28 6.48L30.48 8.29L30.48 8.29Q29.47 7.73 28.29 7.73L28.29 7.73L28.29 7.73Q27.66 7.73 27.37 7.87L27.37 7.87L27.37 7.87Q27.08 8.02 27.08 8.26L27.08 8.26L27.08 8.26Q27.08 8.53 27.40 8.63L27.40 8.63L27.40 8.63Q27.72 8.74 28.46 8.85L28.46 8.85L28.46 8.85Q29.40 8.99 30.02 9.17L30.02 9.17L30.02 9.17Q30.63 9.35 31.09 9.83L31.09 9.83L31.09 9.83Q31.54 10.32 31.54 11.19L31.54 11.19L31.54 11.19Q31.54 11.90 31.11 12.47L31.11 12.47L31.11 12.47Q30.67 13.03 29.83 13.36L29.83 13.36L29.83 13.36Q28.98 13.68 27.79 13.68L27.79 13.68ZM37.63 5.84L37.63 5.84Q39.05 5.84 39.91 6.68L39.91 6.68L39.91 6.68Q40.77 7.52 40.77 9.21L40.77 9.21L40.77 13.55L38.11 13.55L38.11 9.65L38.11 9.65Q38.11 8.09 36.86 8.09L36.86 8.09L36.86 8.09Q36.18 8.09 35.76 8.54L35.76 8.54L35.76 8.54Q35.35 8.99 35.35 9.88L35.35 9.88L35.35 13.55L32.69 13.55L32.69 5.96L35.22 5.96L35.22 6.79L35.22 6.79Q35.67 6.33 36.29 6.08L36.29 6.08L36.29 6.08Q36.90 5.84 37.63 5.84L37.63 5.84ZM46.24 13.68L46.24 13.68Q45.02 13.68 44.04 13.17L44.04 13.17L44.04 13.17Q43.06 12.67 42.51 11.77L42.51 11.77L42.51 11.77Q41.96 10.88 41.96 9.74L41.96 9.74L41.96 9.74Q41.96 8.62 42.51 7.73L42.51 7.73L42.51 7.73Q43.06 6.83 44.04 6.33L44.04 6.33L44.04 6.33Q45.01 5.84 46.24 5.84L46.24 5.84L46.24 5.84Q47.47 5.84 48.45 6.33L48.45 6.33L48.45 6.33Q49.43 6.83 49.98 7.72L49.98 7.72L49.98 7.72Q50.53 8.61 50.53 9.74L50.53 9.74L50.53 9.74Q50.53 10.88 49.98 11.77L49.98 11.77L49.98 11.77Q49.43 12.67 48.45 13.17L48.45 13.17L48.45 13.17Q47.47 13.68 46.24 13.68L46.24 13.68ZM46.24 11.56L46.24 11.56Q46.94 11.56 47.39 11.08L47.39 11.08L47.39 11.08Q47.84 10.60 47.84 9.74L47.84 9.74L47.84 9.74Q47.84 8.90 47.39 8.43L47.39 8.43L47.39 8.43Q46.94 7.95 46.24 7.95L46.24 7.95L46.24 7.95Q45.54 7.95 45.09 8.43L45.09 8.43L45.09 8.43Q44.65 8.90 44.65 9.74L44.65 9.74L44.65 9.74Q44.65 10.60 45.09 11.08L45.09 11.08L45.09 11.08Q45.54 11.56 46.24 11.56L46.24 11.56ZM60.84 13.75L60.84 13.75Q59.30 13.75 58.08 13.10L58.08 13.10L58.08 13.10Q56.85 12.45 56.15 11.28L56.15 11.28L56.15 11.28Q55.45 10.12 55.45 8.65L55.45 8.65L55.45 8.65Q55.45 7.18 56.15 6.02L56.15 6.02L56.15 6.02Q56.85 4.86 58.08 4.21L58.08 4.21L58.08 4.21Q59.30 3.56 60.84 3.56L60.84 3.56L60.84 3.56Q62.19 3.56 63.27 4.03L63.27 4.03L63.27 4.03Q64.34 4.51 65.06 5.40L65.06 5.40L63.29 7.00L63.29 7.00Q62.34 5.85 60.98 5.85L60.98 5.85L60.98 5.85Q60.19 5.85 59.56 6.20L59.56 6.20L59.56 6.20Q58.94 6.55 58.60 7.19L58.60 7.19L58.60 7.19Q58.25 7.83 58.25 8.65L58.25 8.65L58.25 8.65Q58.25 9.48 58.60 10.11L58.60 10.11L58.60 10.11Q58.94 10.75 59.56 11.10L59.56 11.10L59.56 11.10Q60.19 11.45 60.98 11.45L60.98 11.45L60.98 11.45Q62.34 11.45 63.29 10.30L63.29 10.30L65.06 11.90L65.06 11.90Q64.34 12.80 63.27 13.27L63.27 13.27L63.27 13.27Q62.19 13.75 60.84 13.75L60.84 13.75ZM69.97 13.68L69.97 13.68Q68.75 13.68 67.77 13.17L67.77 13.17L67.77 13.17Q66.79 12.67 66.24 11.77L66.24 11.77L66.24 11.77Q65.69 10.88 65.69 9.74L65.69 9.74L65.69 9.74Q65.69 8.62 66.24 7.73L66.24 7.73L66.24 7.73Q66.79 6.83 67.77 6.33L67.77 6.33L67.77 6.33Q68.74 5.84 69.97 5.84L69.97 5.84L69.97 5.84Q71.20 5.84 72.18 6.33L72.18 6.33L72.18 6.33Q73.16 6.83 73.71 7.72L73.71 7.72L73.71 7.72Q74.26 8.61 74.26 9.74L74.26 9.74L74.26 9.74Q74.26 10.88 73.71 11.77L73.71 11.77L73.71 11.77Q73.16 12.67 72.18 13.17L72.18 13.17L72.18 13.17Q71.20 13.68 69.97 13.68L69.97 13.68ZM69.97 11.56L69.97 11.56Q70.67 11.56 71.12 11.08L71.12 11.08L71.12 11.08Q71.57 10.60 71.57 9.74L71.57 9.74L71.57 9.74Q71.57 8.90 71.12 8.43L71.12 8.43L71.12 8.43Q70.67 7.95 69.97 7.95L69.97 7.95L69.97 7.95Q69.27 7.95 68.82 8.43L68.82 8.43L68.82 8.43Q68.38 8.90 68.38 9.74L68.38 9.74L68.38 9.74Q68.38 10.60 68.82 11.08L68.82 11.08L68.82 11.08Q69.27 11.56 69.97 11.56L69.97 11.56ZM80.81 5.96L83.47 5.96L83.47 13.55L80.93 13.55L80.93 12.74L80.93 12.74Q80.51 13.20 79.93 13.44L79.93 13.44L79.93 13.44Q79.34 13.68 78.68 13.68L78.68 13.68L78.68 13.68Q77.21 13.68 76.33 12.81L76.33 12.81L76.33 12.81Q75.46 11.94 75.46 10.21L75.46 10.21L75.46 5.96L78.12 5.96L78.12 9.77L78.12 9.77Q78.12 10.63 78.44 11.02L78.44 11.02L78.44 11.02Q78.76 11.41 79.38 11.41L79.38 11.41L79.38 11.41Q80.01 11.41 80.41 10.97L80.41 10.97L80.41 10.97Q80.81 10.53 80.81 9.62L80.81 9.62L80.81 5.96ZM90.12 5.84L90.12 5.84Q91.53 5.84 92.39 6.68L92.39 6.68L92.39 6.68Q93.25 7.52 93.25 9.21L93.25 9.21L93.25 13.55L90.59 13.55L90.59 9.65L90.59 9.65Q90.59 8.09 89.35 8.09L89.35 8.09L89.35 8.09Q88.66 8.09 88.25 8.54L88.25 8.54L88.25 8.54Q87.84 8.99 87.84 9.88L87.84 9.88L87.84 13.55L85.18 13.55L85.18 5.96L87.71 5.96L87.71 6.79L87.71 6.79Q88.16 6.33 88.77 6.08L88.77 6.08L88.77 6.08Q89.39 5.84 90.12 5.84L90.12 5.84ZM99.50 11.38L100.16 13.24L100.16 13.24Q99.82 13.45 99.34 13.57L99.34 13.57L99.34 13.57Q98.85 13.68 98.31 13.68L98.31 13.68L98.31 13.68Q96.82 13.68 96.03 12.95L96.03 12.95L96.03 12.95Q95.23 12.22 95.23 10.78L95.23 10.78L95.23 8.23L94.12 8.23L94.12 6.24L95.23 6.24L95.23 4.27L97.89 4.27L97.89 6.24L99.62 6.24L99.62 8.23L97.89 8.23L97.89 10.75L97.89 10.75Q97.89 11.16 98.11 11.39L98.11 11.39L98.11 11.39Q98.32 11.62 98.69 11.62L98.69 11.62L98.69 11.62Q99.15 11.62 99.50 11.38L99.50 11.38ZM106.64 5.96L109.17 5.96L105.90 13.86L105.90 13.86Q105.32 15.26 104.50 15.83L104.50 15.83L104.50 15.83Q103.67 16.39 102.48 16.39L102.48 16.39L102.48 16.39Q101.88 16.39 101.27 16.20L101.27 16.20L101.27 16.20Q100.66 16.02 100.28 15.71L100.28 15.71L101.21 13.85L101.21 13.85Q101.43 14.06 101.75 14.17L101.75 14.17L101.75 14.17Q102.06 14.29 102.38 14.29L102.38 14.29L102.38 14.29Q102.76 14.29 103.00 14.14L103.00 14.14L103.00 14.14Q103.25 13.99 103.42 13.65L103.42 13.65L100.17 5.96L102.90 5.96L104.76 10.60L106.64 5.96ZM121.59 8.44L121.59 8.44Q122.43 8.74 122.91 9.36L122.91 9.36L122.91 9.36Q123.38 9.98 123.38 10.86L123.38 10.86L123.38 10.86Q123.38 12.15 122.35 12.85L122.35 12.85L122.35 12.85Q121.31 13.55 119.35 13.55L119.35 13.55L114.06 13.55L114.06 3.75L119.07 3.75L119.07 3.75Q120.95 3.75 121.93 4.45L121.93 4.45L121.93 4.45Q122.91 5.14 122.91 6.31L122.91 6.31L122.91 6.31Q122.91 7.01 122.56 7.57L122.56 7.57L122.56 7.57Q122.22 8.12 121.59 8.44L121.59 8.44ZM118.71 5.75L116.80 5.75L116.80 7.64L118.71 7.64L118.71 7.64Q120.11 7.64 120.11 6.69L120.11 6.69L120.11 6.69Q120.11 5.75 118.71 5.75L118.71 5.75ZM119.13 11.55L119.13 11.55Q120.58 11.55 120.58 10.56L120.58 10.56L120.58 10.56Q120.58 9.56 119.13 9.56L119.13 9.56L116.80 9.56L116.80 11.55L119.13 11.55ZM127.93 5.84L127.93 5.84Q129.82 5.84 130.82 6.70L130.82 6.70L130.82 6.70Q131.81 7.56 131.81 9.34L131.81 9.34L131.81 13.55L129.33 13.55L129.33 12.57L129.33 12.57Q128.76 13.68 127.09 13.68L127.09 13.68L127.09 13.68Q126.21 13.68 125.57 13.37L125.57 13.37L125.57 13.37Q124.92 13.06 124.59 12.54L124.59 12.54L124.59 12.54Q124.26 12.01 124.26 11.34L124.26 11.34L124.26 11.34Q124.26 10.26 125.09 9.67L125.09 9.67L125.09 9.67Q125.92 9.07 127.64 9.07L127.64 9.07L129.15 9.07L129.15 9.07Q129.08 7.87 127.54 7.87L127.54 7.87L127.54 7.87Q126.99 7.87 126.43 8.04L126.43 8.04L126.43 8.04Q125.87 8.22 125.48 8.53L125.48 8.53L124.59 6.72L124.59 6.72Q125.22 6.30 126.12 6.07L126.12 6.07L126.12 6.07Q127.02 5.84 127.93 5.84L127.93 5.84ZM127.83 12.00L127.83 12.00Q128.30 12.00 128.65 11.77L128.65 11.77L128.65 11.77Q129.00 11.55 129.15 11.12L129.15 11.12L129.15 10.46L128.00 10.46L128.00 10.46Q126.84 10.46 126.84 11.23L126.84 11.23L126.84 11.23Q126.84 11.58 127.11 11.79L127.11 11.79L127.11 11.79Q127.37 12.00 127.83 12.00L127.83 12.00ZM138.43 5.84L138.43 5.84Q139.85 5.84 140.71 6.68L140.71 6.68L140.71 6.68Q141.57 7.52 141.57 9.21L141.57 9.21L141.57 13.55L138.91 13.55L138.91 9.65L138.91 9.65Q138.91 8.09 137.66 8.09L137.66 8.09L137.66 8.09Q136.98 8.09 136.56 8.54L136.56 8.54L136.56 8.54Q136.15 8.99 136.15 9.88L136.15 9.88L136.15 13.55L133.49 13.55L133.49 5.96L136.02 5.96L136.02 6.79L136.02 6.79Q136.47 6.33 137.09 6.08L137.09 6.08L137.09 6.08Q137.70 5.84 138.43 5.84L138.43 5.84ZM148.81 13.55L146.68 10.89L145.89 11.69L145.89 13.55L143.23 13.55L143.23 3.16L145.89 3.16L145.89 8.61L148.61 5.96L151.76 5.96L148.61 9.21L152.03 13.55L148.81 13.55Z"></path></g><!----><!----></svg>